
<svg width="55" height="52" viewBox="0 0 55 52" fill="none" xmlns="http://www.w3.org/2000/svg">
<circle cx="31.0586" cy="28.3828" r="23" fill="#FFF8D4"/>
<path d="M28.7083 26.7087V34.8753H32.7917V26.7087H36.875L30.75 20.5837L24.625 26.7087H28.7083ZM16.4583 0.166992C11.9667 0.166992 8.29167 3.84199 8.29167 8.33366C8.29167 12.8253 11.9667 16.5003 16.4583 16.5003C20.95 16.5003 24.625 12.8253 24.625 8.33366C24.625 3.84199 20.95 0.166992 16.4583 0.166992ZM16.4583 4.25033C18.7042 4.25033 20.5417 6.08783 20.5417 8.33366C20.5417 10.5795 18.7042 12.417 16.4583 12.417C14.2125 12.417 12.375 10.5795 12.375 8.33366C12.375 6.08783 14.2125 4.25033 16.4583 4.25033ZM16.4583 18.542C10.9458 18.542 0.125 21.1962 0.125 26.7087V32.8337H19.5208C18.9083 31.6087 18.7042 30.3837 18.5 28.9545H4.00417V26.7087C4.00417 25.4837 10.3333 22.4212 16.4583 22.4212C17.4792 22.4212 18.5 22.6253 19.5208 22.6253C20.1333 21.4003 20.7458 20.1753 21.7667 19.1545C19.725 18.7462 17.8875 18.542 16.4583 18.542Z" fill="#3E3E3E"/>
</svg>
